<?xml version="1.0" encoding="UTF-8"?>
<svg id="Capa_2" data-name="Capa 2" xmlns="http://www.w3.org/2000/svg" viewBox="0 0 671.18 263.29">
  <g id="Capa_1-2" data-name="Capa 1">
    <g>
      <path d="M645.1,96.42c2.57-3.78,5.91-6.1,10.33-6.57,5.56-.59,10.09,1.41,13.2,6.02,3.07,4.54,3.44,9.45,.74,14.33-2.28,4.12-5.39,7.64-8.93,10.68-4.64,4-9.52,7.71-14.29,11.56-.59,.48-1.08,.64-1.82,.15-8.02-5.39-15.46-11.45-21.5-19.06-3.55-4.47-4.77-9.44-2.61-14.89,3.86-9.77,16.95-11.81,23.69-3.74,.38,.45,.73,.92,1.19,1.51Z" fill="#eb6291"/>
      <path d="M0,68.35H31.94v43.11L97.81,41.3h33.13L55.09,122.05c-3.19,3.99-4.89,8.08-5.09,12.28-.2,4.19,.73,8.32,2.8,12.37,2.06,4.06,5.02,7.85,8.88,11.38,3.86,3.53,8.22,6.66,13.07,9.38,4.86,2.73,9.98,4.86,15.37,6.39,5.39,1.53,10.68,2.3,15.87,2.3v31.94c-10.38,0-19.59-1.66-27.64-4.99-8.05-3.32-14.94-7.65-20.66-12.97-5.72-5.32-10.28-11.28-13.67-17.86-3.39-6.59-5.62-13.14-6.69-19.66-1.07-6.52-1-12.64,.2-18.36,1.2-5.72,3.59-10.38,7.19-13.97h-4.59c-2.93,3.06-5.02,6.79-6.29,11.18-1.27,4.39-1.9,9.38-1.9,14.97v116.85H0V68.35Z" fill="#805295"/>
      <path d="M111.97,149.39c0-6.79,1.26-13.17,3.79-19.16,2.53-5.99,6.02-11.21,10.48-15.67,4.46-4.46,9.65-7.95,15.57-10.48,5.92-2.53,12.28-3.79,19.06-3.79,8.91,0,17.3,2.06,25.15,6.19v-4.19h31.94v115.04h-29.94c0-1.2,.73-11.85,2.2-13.45,1.46-1.6,3.06-3.96,4.79-7.09,1.73-3.12,3.33-7.22,4.79-12.27,1.46-5.06,2.2-11.58,2.2-19.56h-3.99c0,6.79-.97,12.97-2.89,18.56-1.93,5.59-4.66,10.35-8.18,14.27-3.53,3.93-7.82,6.95-12.87,9.08-5.06,2.13-10.78,3.19-17.17,3.19s-12.11-1.27-17.56-3.79c-5.46-2.53-10.21-6.02-14.27-10.48-4.06-4.46-7.25-9.68-9.58-15.67-2.33-5.99-3.49-12.38-3.49-19.16v-11.58Zm31.94,15.57c0,2.93,.56,5.66,1.7,8.18,1.13,2.53,2.63,4.76,4.49,6.69,1.86,1.93,4.06,3.46,6.59,4.59,2.53,1.13,5.25,1.7,8.18,1.7s5.69-.56,8.28-1.7c2.59-1.13,4.82-2.66,6.69-4.59,1.86-1.93,3.36-4.16,4.49-6.69,1.13-2.53,1.7-5.25,1.7-8.18v-19.56c0-2.93-.57-5.65-1.7-8.18-1.13-2.53-2.63-4.76-4.49-6.69-1.87-1.93-4.09-3.46-6.69-4.59-2.59-1.13-5.36-1.7-8.28-1.7s-5.66,.57-8.18,1.7c-2.53,1.13-4.73,2.66-6.59,4.59-1.87,1.93-3.36,4.16-4.49,6.69-1.13,2.53-1.7,5.26-1.7,8.18v19.56Z" fill="#805295"/>
      <path d="M271.1,216.13h-31.94V95.12h29.94c0,1.2-.73,2.59-2.2,4.19-1.47,1.6-3.06,3.96-4.79,7.09-1.73,3.13-3.33,7.22-4.79,12.27-1.47,5.06-2.2,11.58-2.2,19.56h3.99c0-6.79,1.03-12.94,3.09-18.46,2.06-5.52,4.79-10.28,8.18-14.27s7.35-7.05,11.88-9.18c4.52-2.13,9.18-3.19,13.97-3.19,5.06,0,9.85,.7,14.37,2.1,4.52,1.4,8.71,3.36,12.57,5.89l-17.56,20.96c-1.87-1.46-3.93-2.66-6.19-3.59-2.26-.93-4.66-1.4-7.19-1.4-2.93,0-5.69,.57-8.28,1.7-2.59,1.13-4.82,2.66-6.69,4.59-1.87,1.93-3.36,4.16-4.49,6.69-1.13,2.53-1.7,5.26-1.7,8.18v77.9Z" fill="#56bfd2"/>
      <path d="M307.42,152.14c0-6.79,1.4-13.17,4.19-19.16,2.79-5.99,6.59-11.21,11.38-15.67,4.79-4.46,10.41-7.95,16.87-10.48,6.45-2.53,13.34-3.79,20.66-3.79s14.17,1.27,20.56,3.79c6.39,2.53,11.98,6.02,16.77,10.48,4.79,4.46,8.58,9.68,11.38,15.67,2.79,5.99,4.19,12.37,4.19,19.16v11.58c0,6.79-1.4,13.17-4.19,19.16-2.79,5.99-6.59,11.21-11.38,15.67-4.79,4.46-10.38,7.95-16.77,10.48-6.39,2.53-13.24,3.79-20.56,3.79s-14.21-1.27-20.66-3.79c-6.46-2.53-12.08-6.02-16.87-10.48-4.79-4.46-8.58-9.68-11.38-15.67-2.8-5.99-4.19-12.38-4.19-19.16v-11.58Zm31.94,15.57c0,2.93,.56,5.66,1.7,8.18,1.13,2.53,2.63,4.76,4.49,6.69,1.86,1.93,4.09,3.46,6.69,4.59,2.59,1.13,5.35,1.7,8.28,1.7s5.65-.56,8.18-1.7c2.53-1.13,4.76-2.66,6.69-4.59s3.42-4.16,4.49-6.69c1.06-2.53,1.6-5.25,1.6-8.18v-19.56c0-2.93-.53-5.65-1.6-8.18-1.07-2.53-2.56-4.76-4.49-6.69-1.93-1.93-4.16-3.46-6.69-4.59-2.53-1.13-5.26-1.7-8.18-1.7s-5.69,.57-8.28,1.7c-2.59,1.13-4.82,2.66-6.69,4.59-1.87,1.93-3.36,4.16-4.49,6.69-1.13,2.53-1.7,5.26-1.7,8.18v19.56Z" fill="#56bfd2"/>
      <rect x="629.28" y="142.49" width="31.94" height="120.8" fill="#eb6291"/>
      <g>
        <path d="M54.03,230.01c0-.46,.37-.87,.82-.87h10.82c8.81,0,16.02,7.17,16.02,15.94s-7.21,16.02-16.02,16.02h-10.82c-.46,0-.82-.41-.82-.87v-30.22Zm11.09,25.52c5.94,0,10.27-4.47,10.27-10.45s-4.34-10.41-10.27-10.41h-5.2v20.87h5.2Z" fill="#2d2e6c"/>
        <path d="M99.59,230.01c0-.46,.37-.87,.87-.87h18.58c.5,0,.87,.41,.87,.87v3.74c0,.45-.36,.87-.87,.87h-13.52v7.49h11.28c.46,0,.87,.41,.87,.87v3.79c0,.5-.41,.87-.87,.87h-11.28v7.99h13.52c.5,0,.87,.41,.87,.87v3.74c0,.45-.36,.87-.87,.87h-18.58c-.5,0-.87-.41-.87-.87v-30.22Z" fill="#2d2e6c"/>
        <path d="M142.59,234.62h-6.98c-.5,0-.87-.41-.87-.87v-3.74c0-.46,.36-.87,.87-.87h19.95c.5,0,.87,.41,.87,.87v3.74c0,.45-.36,.87-.87,.87h-6.98v25.61c0,.45-.41,.87-.87,.87h-4.25c-.46,0-.87-.41-.87-.87v-25.61Z" fill="#2d2e6c"/>
        <path d="M167.15,259.91l14.2-30.73c.14-.28,.36-.5,.78-.5h.46c.46,0,.64,.23,.78,.5l14.06,30.73c.27,.59-.09,1.19-.78,1.19h-3.97c-.68,0-1-.27-1.32-.91l-2.24-4.93h-13.65l-2.24,4.93c-.18,.46-.59,.91-1.33,.91h-3.97c-.68,0-1.05-.59-.78-1.19Zm19.72-9.72l-4.57-10.04h-.14l-4.47,10.04h9.18Z" fill="#2d2e6c"/>
        <path d="M213.43,230.01c0-.46,.37-.87,.87-.87h4.2c.46,0,.87,.41,.87,.87v25.61h11.64c.5,0,.87,.41,.87,.87v3.74c0,.45-.36,.87-.87,.87h-16.71c-.5,0-.87-.41-.87-.87v-30.22Z" fill="#2d2e6c"/>
        <path d="M248.35,230.01c0-.46,.37-.87,.87-.87h4.2c.46,0,.87,.41,.87,.87v25.61h11.64c.5,0,.87,.41,.87,.87v3.74c0,.45-.36,.87-.87,.87h-16.71c-.5,0-.87-.41-.87-.87v-30.22Z" fill="#2d2e6c"/>
        <path d="M283.27,230.01c0-.46,.37-.87,.87-.87h18.58c.5,0,.87,.41,.87,.87v3.74c0,.45-.37,.87-.87,.87h-13.52v7.49h11.28c.46,0,.87,.41,.87,.87v3.79c0,.5-.41,.87-.87,.87h-11.28v7.99h13.52c.5,0,.87,.41,.87,.87v3.74c0,.45-.37,.87-.87,.87h-18.58c-.5,0-.87-.41-.87-.87v-30.22Z" fill="#2d2e6c"/>
        <path d="M320.11,256.63l1.64-2.83c.36-.64,1.14-.64,1.55-.32,.23,.14,3.93,2.83,6.89,2.83,2.37,0,4.15-1.55,4.15-3.52,0-2.33-1.96-3.93-5.8-5.48-4.29-1.73-8.58-4.47-8.58-9.86,0-4.06,3.01-8.77,10.27-8.77,4.66,0,8.22,2.37,9.13,3.06,.46,.28,.59,1.05,.27,1.51l-1.73,2.6c-.37,.55-1.05,.91-1.6,.55-.36-.23-3.83-2.51-6.35-2.51s-4.02,1.73-4.02,3.2c0,2.15,1.69,3.61,5.39,5.11,4.43,1.78,9.54,4.43,9.54,10.32,0,4.7-4.06,9.04-10.5,9.04-5.75,0-9.13-2.69-10.04-3.56-.41-.41-.64-.64-.23-1.37Z" fill="#2d2e6c"/>
        <path d="M380.14,230.01c0-.46,.41-.87,.87-.87h4.34c.5,0,.87,.41,.87,.87v18.67c0,3.88,2.65,6.94,6.62,6.94s6.67-3.06,6.67-6.89v-18.72c0-.46,.36-.87,.87-.87h4.34c.46,0,.87,.41,.87,.87v18.99c0,6.94-5.52,12.56-12.74,12.56s-12.69-5.62-12.69-12.56v-18.99Zm8.45-4.29l-.82-1.6c-.18-.36,.05-.73,.27-.87l7.49-4.47c.5-.32,.96-.28,1.19,.14l1.28,2.37c.32,.55,.14,1.05-.27,1.23l-7.99,3.52c-.64,.28-.96,.09-1.14-.32Z" fill="#2d2e6c"/>
        <path d="M425.33,229.51c0-.45,.41-.82,.87-.82h1.14l18.99,20.18h.04v-18.86c0-.46,.37-.87,.87-.87h4.2c.46,0,.87,.41,.87,.87v30.73c0,.46-.41,.82-.87,.82h-1.1l-19.08-20.96h-.04v19.63c0,.45-.36,.87-.87,.87h-4.16c-.46,0-.87-.41-.87-.87v-30.73Z" fill="#2d2e6c"/>
        <path d="M472.48,230.01c0-.46,.41-.87,.87-.87h4.25c.46,0,.87,.41,.87,.87v30.22c0,.45-.41,.87-.87,.87h-4.25c-.46,0-.87-.41-.87-.87v-30.22Z" fill="#2d2e6c"/>
        <path d="M512.79,228.69c4.61,0,7.94,1.46,11.05,4.25,.41,.36,.41,.91,.04,1.28l-2.78,2.88c-.32,.36-.78,.36-1.14,0-1.92-1.69-4.47-2.7-7.03-2.7-5.84,0-10.18,4.89-10.18,10.64s4.38,10.55,10.23,10.55c2.74,0,5.07-1.05,6.98-2.6,.37-.32,.87-.28,1.14,0l2.83,2.92c.36,.32,.27,.91-.05,1.23-3.1,3.01-7.03,4.43-11.09,4.43-9.13,0-16.48-7.26-16.48-16.39s7.35-16.48,16.48-16.48Z" fill="#2d2e6c"/>
        <path d="M555.7,228.69c9.13,0,16.44,7.35,16.44,16.48s-7.3,16.39-16.44,16.39-16.39-7.26-16.39-16.39,7.26-16.48,16.39-16.48Zm0,26.93c5.75,0,10.5-4.7,10.5-10.45s-4.75-10.55-10.5-10.55-10.46,4.8-10.46,10.55,4.7,10.45,10.46,10.45Z" fill="#2d2e6c"/>
        <path d="M588.1,256.63l1.64-2.83c.36-.64,1.14-.64,1.55-.32,.23,.14,3.93,2.83,6.89,2.83,2.37,0,4.15-1.55,4.15-3.52,0-2.33-1.96-3.93-5.8-5.48-4.29-1.73-8.58-4.47-8.58-9.86,0-4.06,3.01-8.77,10.27-8.77,4.66,0,8.22,2.37,9.13,3.06,.46,.28,.59,1.05,.27,1.51l-1.73,2.6c-.36,.55-1.05,.91-1.6,.55-.36-.23-3.83-2.51-6.35-2.51s-4.02,1.73-4.02,3.2c0,2.15,1.69,3.61,5.39,5.11,4.43,1.78,9.54,4.43,9.54,10.32,0,4.7-4.06,9.04-10.5,9.04-5.75,0-9.13-2.69-10.04-3.56-.41-.41-.64-.64-.23-1.37Z" fill="#2d2e6c"/>
      </g>
      <path d="M609.35,219.24c-.16-1.02-.25-2.09-.25-3.22v-44.19h-.08v-15.51c0-6.79-1.27-13.17-3.79-19.16-2.53-5.99-6.02-11.21-10.48-15.67-4.46-4.46-9.65-7.95-15.57-10.48-5.92-2.53-12.28-3.79-19.06-3.79-7.19,0-14.04,1.33-20.56,3.99-6.52,2.66-12.11,6.46-16.77,11.38-4.13-4.66-8.98-8.38-14.57-11.18-5.59-2.8-11.65-4.19-18.16-4.19s-12.11,1.07-17.17,3.19c-5.06,2.13-9.35,5.16-12.87,9.08-3.53,3.93-6.26,8.68-8.18,14.27-1.93,5.59-2.89,11.78-2.89,18.56h-3.99c0-5.74,.44-10.65,1.31-14.73,1.39-9.75,4.25-22.98,10.13-35.42,5.02-1.25,49.04-12.77,71.63-36.66,14.31-15.13,19.83-32.72,14.79-47.06-3.49-9.93-11.87-16.72-22.39-18.17-38.3-5.27-68.81,63.16-72.09,73.67-.17,.55-.34,1.08-.5,1.6-8.96-8.32-22.36-20.05-33.95-27.31-13.69-8.58-36.75-10.12-47.96,1.39-3.97,4.08-11.8,15.7,1.29,35.4,11.59,17.43,33.36,21.86,52.48,21.86,5.32,0,10.42-.34,15.05-.84-1.29,3.18-2.56,7.23-3.68,12.7-1.45,7.12-2.09,14.39-2.09,21.66v74.59h31.94v-62.67c0-2.93,.56-5.65,1.7-8.18,1.13-2.53,2.63-4.76,4.49-6.69,1.86-1.93,4.09-3.46,6.69-4.59,2.59-1.13,5.35-1.7,8.28-1.7s5.65,.57,8.18,1.7c2.53,1.13,4.76,2.66,6.69,4.59,1.93,1.93,3.42,4.16,4.49,6.69,1.06,2.53,1.6,5.26,1.6,8.18v50.91h31.94v-50.91c0-2.93,.56-5.65,1.7-8.18,1.13-2.53,2.63-4.76,4.49-6.69,1.86-1.93,4.09-3.46,6.69-4.59,2.59-1.13,5.35-1.7,8.28-1.7s5.65,.57,8.18,1.7c2.53,1.13,4.76,2.66,6.69,4.59,1.93,1.93,3.42,4.16,4.49,6.69,1.06,2.53,1.6,5.26,1.6,8.18v62.02h.08v4.9h32.18ZM465.82,79.42c4.93-15.8,30.14-61.11,50.34-61.11,.59,0,1.19,.04,1.77,.12,3.81,.52,6.37,2.58,7.62,6.11,2.01,5.7,.37,16.55-10.82,28.4-12.63,13.36-34.79,22.51-49.19,27.39,.09-.3,.19-.6,.28-.9Zm-83.34-4.52c-3.06-4.6-5.56-10.3-3.42-12.49,1.76-1.81,5.48-2.79,9.8-2.79,4.99,0,10.78,1.31,15.31,4.14,9.79,6.14,21.51,16.3,29.88,24-18.19,2.13-42.16,1.3-51.57-12.86Z" fill="#eb6291"/>
    </g>
  </g>
</svg>