<?xml version="1.0" encoding="UTF-8"?>
<svg id="Capa_2" data-name="Capa 2" xmlns="http://www.w3.org/2000/svg" viewBox="0 0 722.18 243.84">
  <g id="Capa_1-2" data-name="Capa 1">
    <g>
      <path d="M694.11,65.19c2.76-4.07,6.36-6.56,11.12-7.07,5.98-.64,10.86,1.52,14.21,6.48,3.3,4.89,3.7,10.17,.79,15.42-2.46,4.43-5.8,8.22-9.61,11.5-4.99,4.3-10.24,8.3-15.38,12.44-.64,.51-1.17,.69-1.95,.16-8.63-5.8-16.64-12.32-23.14-20.51-3.81-4.81-5.13-10.16-2.81-16.02,4.15-10.52,18.24-12.71,25.5-4.02,.4,.48,.78,.99,1.28,1.63Z" fill="#eb6291"/>
      <path d="M0,73.55H34.36v46.39L105.24,44.43h35.65L59.27,131.32c-3.44,4.3-5.26,8.7-5.48,13.21-.21,4.51,.79,8.95,3.01,13.31,2.22,4.37,5.4,8.45,9.56,12.24,4.15,3.8,8.84,7.16,14.07,10.09,5.22,2.94,10.74,5.23,16.54,6.87,5.8,1.65,11.49,2.47,17.07,2.47v34.36c-11.17,0-21.08-1.79-29.74-5.37-8.66-3.58-16.07-8.23-22.23-13.96-6.16-5.72-11.06-12.13-14.71-19.22-3.65-7.09-6.05-14.14-7.19-21.15-1.15-7.01-1.07-13.6,.21-19.76,1.29-6.15,3.87-11.17,7.73-15.03h-4.94c-3.15,3.3-5.41,7.3-6.76,12.03-1.36,4.72-2.04,10.09-2.04,16.11v86.32H0V73.55Z" fill="#805295"/>
      <path d="M120.48,160.74c0-7.3,1.36-14.17,4.08-20.62,2.72-6.44,6.48-12.06,11.28-16.86,4.79-4.8,10.38-8.55,16.75-11.28,6.37-2.72,13.21-4.08,20.51-4.08,9.59,0,18.61,2.22,27.06,6.66v-4.51h34.36v123.78h-32.21c0-1.29,.79-12.75,2.36-14.47,1.57-1.72,3.29-4.26,5.15-7.62,1.86-3.36,3.58-7.76,5.15-13.21,1.57-5.44,2.36-12.46,2.36-21.05h-4.29c0,7.3-1.04,13.96-3.11,19.97-2.08,6.01-5.01,11.13-8.81,15.36-3.8,4.22-8.41,7.48-13.85,9.77-5.44,2.29-11.6,3.44-18.47,3.44s-13.03-1.36-18.9-4.08c-5.87-2.72-10.99-6.48-15.36-11.28-4.37-4.79-7.81-10.42-10.31-16.86-2.51-6.44-3.76-13.32-3.76-20.62v-12.46Zm34.36,16.75c0,3.15,.61,6.09,1.83,8.8,1.22,2.72,2.83,5.12,4.83,7.2,2,2.08,4.37,3.72,7.09,4.94,2.72,1.22,5.65,1.83,8.8,1.83s6.12-.61,8.91-1.83c2.79-1.22,5.19-2.86,7.2-4.94,2-2.07,3.61-4.47,4.83-7.2,1.22-2.72,1.83-5.65,1.83-8.8v-21.05c0-3.15-.61-6.08-1.83-8.8-1.22-2.72-2.83-5.12-4.83-7.2-2.01-2.07-4.4-3.72-7.2-4.94-2.79-1.22-5.76-1.83-8.91-1.83s-6.09,.61-8.8,1.83c-2.72,1.22-5.08,2.87-7.09,4.94-2.01,2.08-3.62,4.48-4.83,7.2-1.22,2.72-1.83,5.66-1.83,8.8v21.05Z" fill="#805295"/>
      <path d="M291.7,232.55h-34.36V102.35h32.21c0,1.29-.79,2.79-2.36,4.51-1.58,1.72-3.3,4.26-5.15,7.62-1.86,3.37-3.58,7.77-5.15,13.21-1.58,5.44-2.36,12.46-2.36,21.05h4.3c0-7.3,1.11-13.92,3.33-19.87,2.22-5.94,5.15-11.06,8.81-15.36s7.91-7.59,12.78-9.88c4.87-2.29,9.88-3.44,15.03-3.44,5.44,0,10.59,.75,15.46,2.26,4.87,1.5,9.38,3.62,13.53,6.34l-18.9,22.55c-2.01-1.57-4.22-2.86-6.66-3.87-2.44-1-5.01-1.5-7.73-1.5-3.15,0-6.12,.61-8.91,1.83-2.79,1.22-5.19,2.87-7.19,4.94-2.01,2.08-3.62,4.48-4.83,7.2-1.22,2.72-1.83,5.66-1.83,8.8v83.82Z" fill="#56bfd2"/>
      <path d="M330.77,163.7c0-7.3,1.5-14.17,4.51-20.62,3.01-6.44,7.09-12.06,12.24-16.86,5.15-4.8,11.2-8.55,18.15-11.28,6.94-2.72,14.35-4.08,22.23-4.08s15.25,1.36,22.12,4.08c6.87,2.72,12.89,6.48,18.04,11.28,5.15,4.8,9.23,10.42,12.24,16.86,3.01,6.44,4.51,13.31,4.51,20.62v12.46c0,7.3-1.5,14.17-4.51,20.62-3.01,6.44-7.09,12.06-12.24,16.86-5.15,4.8-11.17,8.56-18.04,11.28-6.87,2.72-14.25,4.08-22.12,4.08s-15.29-1.36-22.23-4.08c-6.95-2.72-12.99-6.48-18.15-11.28-5.15-4.79-9.23-10.42-12.24-16.86-3.01-6.44-4.51-13.32-4.51-20.62v-12.46Zm34.36,16.75c0,3.15,.61,6.09,1.83,8.8,1.22,2.72,2.83,5.12,4.83,7.2,2,2.08,4.4,3.72,7.19,4.94,2.79,1.22,5.76,1.83,8.91,1.83s6.08-.61,8.8-1.83c2.72-1.22,5.12-2.86,7.19-4.94,2.07-2.07,3.68-4.47,4.83-7.2,1.14-2.72,1.72-5.65,1.72-8.8v-21.05c0-3.15-.57-6.08-1.72-8.8-1.15-2.72-2.76-5.12-4.83-7.2-2.08-2.07-4.48-3.72-7.19-4.94-2.72-1.22-5.66-1.83-8.8-1.83s-6.12,.61-8.91,1.83c-2.79,1.22-5.19,2.87-7.19,4.94-2.01,2.08-3.62,4.48-4.83,7.2-1.22,2.72-1.83,5.66-1.83,8.8v21.05Z" fill="#56bfd2"/>
      <rect x="677.09" y="114.77" width="34.36" height="110.27" fill="#eb6291"/>
      <path d="M655.65,235.9c-.17-1.09-.27-2.25-.27-3.47v-47.54h-.08v-16.69c0-7.3-1.36-14.17-4.08-20.62-2.72-6.44-6.48-12.06-11.28-16.86-4.8-4.8-10.38-8.55-16.75-11.28-6.37-2.72-13.21-4.08-20.51-4.08-7.73,0-15.11,1.43-22.12,4.29-7.02,2.87-13.03,6.95-18.04,12.24-4.44-5.01-9.66-9.02-15.68-12.03-6.01-3.01-12.53-4.51-19.54-4.51s-13.03,1.15-18.47,3.44c-5.44,2.29-10.06,5.55-13.85,9.77-3.8,4.23-6.73,9.34-8.8,15.36-2.08,6.01-3.11,12.67-3.11,19.97h-4.3c0-6.18,.47-11.46,1.41-15.85,1.49-10.49,4.58-24.73,10.9-38.11,5.41-1.35,52.77-13.74,77.07-39.45,15.39-16.28,21.34-35.21,15.91-50.63-3.76-10.68-12.76-17.99-24.09-19.55-41.22-5.65-74.04,67.96-77.56,79.27-.18,.59-.36,1.16-.54,1.72-9.64-8.95-24.06-21.57-36.52-29.39-14.73-9.23-39.55-10.89-51.6,1.49-4.28,4.39-12.7,16.89,1.39,38.09,12.47,18.76,35.89,23.52,56.47,23.52,5.72,0,11.22-.37,16.2-.91-1.39,3.42-2.76,7.78-3.96,13.67-1.56,7.67-2.25,15.48-2.25,23.3v80.25h34.36v-67.44c0-3.15,.61-6.08,1.82-8.8,1.22-2.72,2.83-5.12,4.83-7.2,2-2.07,4.4-3.72,7.19-4.94,2.79-1.22,5.76-1.83,8.91-1.83s6.08,.61,8.8,1.83c2.72,1.22,5.12,2.87,7.19,4.94,2.07,2.08,3.68,4.48,4.83,7.2,1.14,2.72,1.72,5.66,1.72,8.8v54.78h34.36v-54.78c0-3.15,.61-6.08,1.82-8.8,1.22-2.72,2.83-5.12,4.83-7.2,2-2.07,4.4-3.72,7.19-4.94,2.79-1.22,5.76-1.83,8.91-1.83s6.08,.61,8.8,1.83c2.72,1.22,5.12,2.87,7.19,4.94,2.07,2.08,3.68,4.48,4.83,7.2,1.14,2.72,1.72,5.66,1.72,8.8v66.73h.08v5.27h34.63ZM501.21,85.45c5.31-17,32.43-65.75,54.17-65.75,.64,0,1.28,.04,1.9,.13,4.1,.56,6.86,2.77,8.19,6.57,2.16,6.13,.4,17.81-11.64,30.56-13.59,14.38-37.43,24.22-52.92,29.47,.1-.32,.2-.64,.3-.97Zm-89.67-4.86c-3.29-4.95-5.98-11.08-3.68-13.44,1.9-1.95,5.9-3,10.55-3,5.37,0,11.6,1.4,16.48,4.46,10.54,6.61,23.15,17.54,32.14,25.82-19.57,2.29-45.36,1.4-55.49-13.83Z" fill="#eb6291"/>
    </g>
  </g>
</svg>